<svg version="1.2" xmlns="http://www.w3.org/2000/svg" viewBox="0 0 500 500" width="500" height="500">
	<style>
		.s0 { fill: #ffffff } 
	</style>
	<path id="Shape 1" fill-rule="evenodd" class="s0" d="m206 36h88c4.42 0 8 3.58 8 8v411c0 4.42-3.58 8-8 8h-88c-4.42 0-8-3.58-8-8v-411c0-4.42 3.58-8 8-8z"/>
	<path id="Shape 1 copy" fill-rule="evenodd" class="s0" d="m456.9 318.14l-44 76.22c-2.21 3.82-7.11 5.13-10.93 2.92l-355.94-205.5c-3.82-2.21-5.14-7.1-2.93-10.92l44-76.22c2.21-3.82 7.11-5.13 10.93-2.92l355.94 205.5c3.82 2.21 5.14 7.1 2.93 10.92z"/>
	<path id="Shape 1 copy 2" fill-rule="evenodd" class="s0" d="m87.1 394.36l-44-76.22c-2.21-3.82-0.89-8.71 2.93-10.92l355.94-205.5c3.82-2.21 8.72-0.9 10.93 2.92l44 76.22c2.21 3.82 0.89 8.71-2.93 10.92l-355.94 205.5c-3.82 2.21-8.72 0.9-10.93-2.92z"/>
</svg>